<?xml version="1.0" encoding="UTF-8" standalone="no"?>
<!-- Created with Inkscape (http://www.inkscape.org/) -->

<svg
   xmlns:dc="http://purl.org/dc/elements/1.1/"
   xmlns:cc="http://creativecommons.org/ns#"
   xmlns:rdf="http://www.w3.org/1999/02/22-rdf-syntax-ns#"
   xmlns:svg="http://www.w3.org/2000/svg"
   xmlns="http://www.w3.org/2000/svg"
   xmlns:sodipodi="http://sodipodi.sourceforge.net/DTD/sodipodi-0.dtd"
   xmlns:inkscape="http://www.inkscape.org/namespaces/inkscape"
   width="512"
   height="512"
   viewBox="0 0 135.46666 135.46667"
   version="1.1"
   id="svg45"
   inkscape:version="0.92.4 (5da689c313, 2019-01-14)"
   sodipodi:docname="512.svg">
  <defs
     id="defs39" />
  <sodipodi:namedview
     id="base"
     pagecolor="#ffffff"
     bordercolor="#666666"
     borderopacity="1.0"
     inkscape:pageopacity="0.0"
     inkscape:pageshadow="2"
     inkscape:zoom="0.49497475"
     inkscape:cx="41.495259"
     inkscape:cy="162.6745"
     inkscape:document-units="mm"
     inkscape:current-layer="layer1"
     showgrid="false"
     units="px"
     inkscape:window-width="1152"
     inkscape:window-height="809"
     inkscape:window-x="0"
     inkscape:window-y="0"
     inkscape:window-maximized="1" />
  <metadata
     id="metadata42">
    <rdf:RDF>
      <cc:Work
         rdf:about="">
        <dc:format>image/svg+xml</dc:format>
        <dc:type
           rdf:resource="http://purl.org/dc/dcmitype/StillImage" />
        <dc:title />
      </cc:Work>
    </rdf:RDF>
  </metadata>
  <g
     inkscape:label="Camada 1"
     inkscape:groupmode="layer"
     id="layer1"
     transform="translate(0,-161.53332)">
    <rect
       style="fill:#007bff;fill-opacity:1;stroke:none;stroke-width:2.19914556;stroke-miterlimit:4;stroke-dasharray:none;stroke-opacity:1"
       id="rect10"
       width="135.46666"
       height="135.46666"
       x="0"
       y="161.53333" />
    <path
       id="path9"
       d="m 65.775298,208.37917 c 0,1.33703 -1.05738,2.37762 -2.403375,2.37762 H 38.222834 c -1.354965,0 -2.403338,-1.04059 -2.403338,-2.37762 v -21.20731 c 0,-1.33703 1.049513,-2.37762 2.403338,-2.37762 h 25.149089 c 1.34604,0 2.403375,1.04059 2.403375,2.37762 z m 29.318056,2.70878 c -3.182119,-0.69928 -4.335664,-2.33398 -4.335664,-3.83775 v -5.48029 c 0,0 2.115777,0.47219 2.622649,0.60307 1.03158,0.27065 1.68726,1.85287 1.713015,3.23469 0.03383,1.38072 0,5.48028 0,5.48028 z m 6.406696,33.29566 c 0,-0.0524 -0.88281,-6.73117 -0.88281,-6.73117 v -30.83862 c 0,-3.30404 -1.084148,-5.98825 -3.321923,-8.24277 L 83.01278,184.35791 c -0.987983,0 -3.714697,2.71885 -3.714697,2.71885 0,0.98798 7.089224,8.02465 7.089224,8.02465 l -0.210172,11.96639 c 0,4.24842 3.452893,7.69231 7.718064,7.69231 l 1.914398,0.0254 -0.681398,22.86767 0.953265,7.84113 4.292066,23.13849 c 0.15774,3.75829 -3.278328,5.99607 -5.988251,5.99607 -2.508552,0 -5.419899,-2.07218 -5.419899,-4.74629 l 0.05242,-40.55049 c 0,-4.92981 -4.003318,-8.93317 -8.933135,-8.93317 H 71.46595 c 0.603075,-0.0338 0.628785,-26.55552 0.628785,-32.18572 v -1.04054 c 0,-4.79889 -3.916072,-8.70601 -8.723887,-8.70601 h -25.14799 c -4.807807,0 -8.723887,3.90712 -8.723887,8.70601 v 91.91383 l 42.595769,0.70825 0.04357,-53.69733 h 8.042535 c 1.843905,0 3.347677,1.50378 3.347677,3.34768 v 40.43749 c 0,5.42882 5.069663,10.18407 10.856542,10.18407 5.463495,0 11.582626,-4.34463 11.582626,-10.18407 -0.096,-1.34713 -4.46768,-25.49928 -4.46768,-25.49928 z"
       inkscape:connector-curvature="0"
       style="fill:#ffffff;stroke-width:1.11888111" />
  </g>
</svg>
