<?xml version="1.0" encoding="UTF-8" standalone="no"?>
<!-- Created with Inkscape (http://www.inkscape.org/) -->

<svg
   xmlns:dc="http://purl.org/dc/elements/1.1/"
   xmlns:cc="http://creativecommons.org/ns#"
   xmlns:rdf="http://www.w3.org/1999/02/22-rdf-syntax-ns#"
   xmlns:svg="http://www.w3.org/2000/svg"
   xmlns="http://www.w3.org/2000/svg"
   xmlns:sodipodi="http://sodipodi.sourceforge.net/DTD/sodipodi-0.dtd"
   xmlns:inkscape="http://www.inkscape.org/namespaces/inkscape"
   width="1200"
   height="630"
   viewBox="0 0 317.49999 166.6875"
   version="1.1"
   id="svg8"
   inkscape:version="0.92.4 (5da689c313, 2019-01-14)"
   sodipodi:docname="1200x630.svg">
  <defs
     id="defs2" />
  <sodipodi:namedview
     id="base"
     pagecolor="#ffffff"
     bordercolor="#666666"
     borderopacity="1.0"
     inkscape:pageopacity="0.0"
     inkscape:pageshadow="2"
     inkscape:zoom="0.35"
     inkscape:cx="468.57143"
     inkscape:cy="194.68254"
     inkscape:document-units="mm"
     inkscape:current-layer="layer1"
     showgrid="false"
     units="px"
     inkscape:window-width="1152"
     inkscape:window-height="809"
     inkscape:window-x="0"
     inkscape:window-y="0"
     inkscape:window-maximized="1" />
  <metadata
     id="metadata5">
    <rdf:RDF>
      <cc:Work
         rdf:about="">
        <dc:format>image/svg+xml</dc:format>
        <dc:type
           rdf:resource="http://purl.org/dc/dcmitype/StillImage" />
        <dc:title />
      </cc:Work>
    </rdf:RDF>
  </metadata>
  <g
     inkscape:label="Camada 1"
     inkscape:groupmode="layer"
     id="layer1"
     transform="translate(0,-130.31248)">
    <rect
       style="fill:#007bff;fill-opacity:1;stroke:none;stroke-width:3.73460698;stroke-miterlimit:4;stroke-dasharray:none;stroke-opacity:1"
       id="rect10"
       width="317.5"
       height="166.6875"
       x="0"
       y="130.31247" />
    <path
       id="path9"
       d="m 156.79198,192.76874 c 0,1.33703 -1.05737,2.37762 -2.40338,2.37762 h -25.14909 c -1.35495,0 -2.40332,-1.04059 -2.40332,-2.37762 v -21.20731 c 0,-1.33703 1.04951,-2.37762 2.40332,-2.37762 h 25.14909 c 1.34604,0 2.40338,1.04059 2.40338,2.37762 z m 29.31805,2.70878 c -3.1821,-0.69928 -4.33565,-2.33398 -4.33565,-3.83775 v -5.48029 c 0,0 2.11578,0.47219 2.62265,0.60307 1.03157,0.27065 1.68726,1.85287 1.713,3.23469 0.0338,1.38072 0,5.48028 0,5.48028 z m 6.4067,33.29566 c 0,-0.0524 -0.88281,-6.73117 -0.88281,-6.73117 v -30.83862 c 0,-3.30404 -1.08415,-5.98825 -3.32192,-8.24277 l -14.28254,-14.21314 c -0.98798,0 -3.7147,2.71885 -3.7147,2.71885 0,0.98798 7.08923,8.02465 7.08923,8.02465 l -0.21017,11.96639 c 0,4.24842 3.45289,7.69231 7.71806,7.69231 l 1.9144,0.0254 -0.6814,22.86767 0.95326,7.84113 4.29207,23.13849 c 0.15774,3.75829 -3.27833,5.99607 -5.98825,5.99607 -2.50855,0 -5.4199,-2.07218 -5.4199,-4.74629 l 0.0524,-40.55049 c 0,-4.92981 -4.00332,-8.93317 -8.93314,-8.93317 h -8.61872 c 0.60308,-0.0338 0.62879,-26.55552 0.62879,-32.18572 v -1.04054 c 0,-4.79889 -3.91607,-8.70601 -8.72389,-8.70601 h -25.14799 c -4.80781,0 -8.72388,3.90712 -8.72388,8.70601 v 91.91383 l 42.59576,0.70825 0.0436,-53.69733 h 8.04254 c 1.8439,0 3.34768,1.50378 3.34768,3.34768 v 40.43749 c 0,5.42882 5.06966,10.18407 10.85654,10.18407 5.46349,0 11.58262,-4.34463 11.58262,-10.18407 -0.096,-1.34713 -4.46768,-25.49928 -4.46768,-25.49928 z"
       inkscape:connector-curvature="0"
       style="fill:#ffffff;stroke-width:1.11888111" />
  </g>
</svg>
