<?xml version="1.0" encoding="UTF-8"?>
<svg viewBox="0 0 640 480" xmlns="http://www.w3.org/2000/svg">
 <path d="m337.06 118.93c0 1.195-0.94501 2.125-2.148 2.125h-22.477c-1.211 0-2.148-0.93-2.148-2.125v-18.954c0-1.195 0.93802-2.125 2.148-2.125h22.477c1.203 0 2.148 0.93001 2.148 2.125v18.954zm26.203 2.421c-2.844-0.625-3.875-2.086-3.875-3.43v-4.898s1.891 0.422 2.344 0.539c0.922 0.242 1.508 1.656 1.531 2.891 0.031006 1.234 0 4.898 0 4.898zm5.726 29.758c0-0.046997-0.789-6.016-0.789-6.016v-27.562c0-2.953-0.96899-5.352-2.969-7.367l-12.765-12.703c-0.883 0-3.32 2.43-3.32 2.43 0 0.883 6.336 7.172 6.336 7.172l-0.188 10.695c0 3.797 3.086 6.875 6.898 6.875l1.711 0.023-0.609 20.438 0.852 7.008 3.836 20.68c0.14099 3.359-2.93 5.359-5.352 5.359-2.242 0-4.844-1.852-4.844-4.242l0.047-36.242c0-4.406-3.578-7.984-7.984-7.984h-7.703c0.539-0.031006 0.56201-23.734 0.56201-28.766v-0.92999c0-4.289-3.5-7.781-7.797-7.781h-22.476c-4.297 0-7.797 3.492-7.797 7.781v82.148l38.07 0.633 0.039-47.992h7.188c1.648 0 2.992 1.344 2.992 2.992v36.141c0 4.852 4.531 9.102 9.703 9.102 4.883 0 10.352-3.883 10.352-9.102-0.085999-1.204-3.993-22.79-3.993-22.79z"/>
</svg>
